{"scene":0,"asset":{"generator":"ImageToStl.com","version":"2.0"},"scenes":[{"name":"Scene","nodes":[0]}],"nodes":[{"name":"Node0","children":[1,2,3,4,5,6]},{"name":"Node1","mesh":0},{"name":"Node2","mesh":1},{"name":"Node3","mesh":2},{"name":"Node4","mesh":3},{"name":"Node5","mesh":4},{"name":"Node6","mesh":5}],"materials":[{"name":"Material.001","pbrMetallicRoughness":{"baseColorFactor":[0.046664,0.212231,0.799103,1.0],"metallicFactor":0.5,"roughnessFactor":0.75},"emissiveFactor":[0.0,0.0,0.0],"doubleSided":true},{"name":"Material.002","pbrMetallicRoughness":{"baseColorFactor":[0.046664,0.212231,0.799103,1.0],"metallicFactor":0.5,"roughnessFactor":0.75},"emissiveFactor":[0.0,0.0,0.0],"doubleSided":true},{"name":"Material.003","pbrMetallicRoughness":{"baseColorFactor":[0.046664,0.212231,0.799103,1.0],"metallicFactor":0.5,"roughnessFactor":0.75},"emissiveFactor":[0.0,0.0,0.0],"doubleSided":true},{"name":"Material.004","pbrMetallicRoughness":{"baseColorFactor":[0.046664,0.212231,0.799103,1.0],"metallicFactor":0.5,"roughnessFactor":0.75},"emissiveFactor":[0.0,0.0,0.0],"doubleSided":true}],"meshes":[{"name":"Mesh0","primitives":[{"indices":3,"material":0,"attributes":{"POSITION":0,"NORMAL":1,"TEXCOORD_0":2}}]},{"name":"Mesh0","primitives":[{"indices":7,"material":0,"attributes":{"POSITION":4,"NORMAL":5,"TEXCOORD_0":6}}]},{"name":"Mesh0","primitives":[{"indices":11,"material":0,"attributes":{"POSITION":8,"NORMAL":9,"TEXCOORD_0":10}}]},{"name":"Mesh0","primitives":[{"indices":15,"material":2,"attributes":{"POSITION":12,"NORMAL":13,"TEXCOORD_0":14}}]},{"name":"Mesh0","primitives":[{"indices":19,"material":1,"attributes":{"POSITION":16,"NORMAL":17,"TEXCOORD_0":18}}]},{"name":"Mesh0","primitives":[{"indices":23,"material":3,"attributes":{"POSITION":20,"NORMAL":21,"TEXCOORD_0":22}}]}],"accessors":[{"bufferView":0,"componentType":5126,"count":2552,"type":"VEC3","min":[-1.036611,-0.669893,-0.865436],"max":[1.036981,0.138599,1.211364]},{"bufferView":1,"componentType":5126,"count":2552,"type":"VEC3"},{"bufferView":2,"componentType":5126,"count":2552,"type":"VEC2"},{"bufferView":3,"componentType":5123,"count":11484,"type":"SCALAR"},{"bufferView":4,"componentType":5126,"count":2552,"type":"VEC3","min":[-1.045214,0.802685,0.995439],"max":[1.045789,2.894287,1.8642]},{"bufferView":5,"componentType":5126,"count":2552,"type":"VEC3"},{"bufferView":6,"componentType":5126,"count":2552,"type":"VEC2"},{"bufferView":7,"componentType":5123,"count":11484,"type":"SCALAR"},{"bufferView":8,"componentType":5126,"count":64,"type":"VEC3","min":[-0.935144,-2.774102,1.724874],"max":[0.940966,2.803778,1.897428]},{"bufferView":9,"componentType":5126,"count":64,"type":"VEC3"},{"bufferView":10,"componentType":5126,"count":64,"type":"VEC2"},{"bufferView":11,"componentType":5123,"count":396,"type":"SCALAR"},{"bufferView":12,"componentType":5126,"count":64,"type":"VEC3","min":[-0.935144,-2.763361,-0.78383],"max":[0.940966,-0.509357,-0.611275]},{"bufferView":13,"componentType":5126,"count":64,"type":"VEC3"},{"bufferView":14,"componentType":5126,"count":64,"type":"VEC2"},{"bufferView":15,"componentType":5123,"count":396,"type":"SCALAR"},{"bufferView":16,"componentType":5126,"count":104,"type":"VEC3","min":[-0.935144,-0.682325,-0.621228],"max":[0.940966,-0.509771,1.727315]},{"bufferView":17,"componentType":5126,"count":104,"type":"VEC3"},{"bufferView":18,"componentType":5126,"count":104,"type":"VEC2"},{"bufferView":19,"componentType":5123,"count":684,"type":"SCALAR"},{"bufferView":20,"componentType":5126,"count":104,"type":"VEC3","min":[-0.935144,-2.120092,-0.621228],"max":[0.940966,-1.947538,1.727315]},{"bufferView":21,"componentType":5126,"count":104,"type":"VEC3"},{"bufferView":22,"componentType":5126,"count":104,"type":"VEC2"},{"bufferView":23,"componentType":5123,"count":684,"type":"SCALAR"}],"bufferViews":[{"target":34962,"buffer":0,"byteLength":30624,"byteOffset":0},{"target":34962,"buffer":0,"byteLength":30624,"byteOffset":30624},{"target":34962,"buffer":0,"byteLength":20416,"byteOffset":61248},{"target":34963,"buffer":0,"byteLength":22968,"byteOffset":81664},{"target":34962,"buffer":0,"byteLength":30624,"byteOffset":104632},{"target":34962,"buffer":0,"byteLength":30624,"byteOffset":135256},{"target":34962,"buffer":0,"byteLength":20416,"byteOffset":165880},{"target":34963,"buffer":0,"byteLength":22968,"byteOffset":186296},{"target":34962,"buffer":0,"byteLength":768,"byteOffset":209264},{"target":34962,"buffer":0,"byteLength":768,"byteOffset":210032},{"target":34962,"buffer":0,"byteLength":512,"byteOffset":210800},{"target":34963,"buffer":0,"byteLength":792,"byteOffset":211312},{"target":34962,"buffer":0,"byteLength":768,"byteOffset":212104},{"target":34962,"buffer":0,"byteLength":768,"byteOffset":212872},{"target":34962,"buffer":0,"byteLength":512,"byteOffset":213640},{"target":34963,"buffer":0,"byteLength":792,"byteOffset":214152},{"target":34962,"buffer":0,"byteLength":1248,"byteOffset":214944},{"target":34962,"buffer":0,"byteLength":1248,"byteOffset":216192},{"target":34962,"buffer":0,"byteLength":832,"byteOffset":217440},{"target":34963,"buffer":0,"byteLength":1368,"byteOffset":218272},{"target":34962,"buffer":0,"byteLength":1248,"byteOffset":219640},{"target":34962,"buffer":0,"byteLength":1248,"byteOffset":220888},{"target":34962,"buffer":0,"byteLength":832,"byteOffset":222136},{"target":34963,"buffer":0,"byteLength":1368,"byteOffset":222968}],"buffers":[{"byteLength":224336,"uri":"data:application/octet-stream;base64,"}]}