{"accessors" : [{"bufferView" : 0, "byteOffset" : 0, "componentType" : 5123, "count" : 3828, "type" : "SCALAR", "max" : [2551], "min" : [0]}, {"bufferView" : 1, "byteOffset" : 0, "componentType" : 5126, "count" : 2552, "type" : "VEC3", "max" : [1.0369809865951538, 0.1385989934206009, 1.2113640308380127], "min" : [-1.0366109609603882, -0.6698930263519287, -0.8654360175132751], "name" : "POSITION"}, {"bufferView" : 1, "byteOffset" : 12, "componentType" : 5126, "count" : 2552, "type" : "VEC2", "max" : [0.875, 1], "min" : [0.125, 0], "name" : "TEXCOORD_0"}, {"bufferView" : 1, "byteOffset" : 20, "componentType" : 5126, "count" : 2552, "type" : "VEC3", "max" : [1.0000042915344238, 1.0000029802322388, 1.0000030994415283], "min" : [-1.0000040531158447, -1.0000030994415283, -1.0000038146972656], "name" : "NORMAL"}, {"bufferView" : 0, "byteOffset" : 7656, "componentType" : 5123, "count" : 3828, "type" : "SCALAR", "max" : [2551], "min" : [0]}, {"bufferView" : 2, "byteOffset" : 0, "componentType" : 5126, "count" : 2552, "type" : "VEC3", "max" : [1.0457890033721924, 2.894287109375, 1.8641999959945679], "min" : [-1.045214056968689, 0.802685022354126, 0.9954389929771423], "name" : "POSITION"}, {"bufferView" : 2, "byteOffset" : 12, "componentType" : 5126, "count" : 2552, "type" : "VEC2", "max" : [0.875, 1], "min" : [0.125, 0], "name" : "TEXCOORD_0"}, {"bufferView" : 2, "byteOffset" : 20, "componentType" : 5126, "count" : 2552, "type" : "VEC3", "max" : [1.000003457069397, 1.0000032186508179, 1.0000030994415283], "min" : [-1.000003457069397, -1.000003457069397, -1.0000030994415283], "name" : "NORMAL"}, {"bufferView" : 0, "byteOffset" : 15312, "componentType" : 5123, "count" : 132, "type" : "SCALAR", "max" : [63], "min" : [0]}, {"bufferView" : 3, "byteOffset" : 0, "componentType" : 5126, "count" : 64, "type" : "VEC3", "max" : [0.940966010093689, 2.8037779331207275, 1.897428035736084], "min" : [-0.9351440072059631, -2.774101972579956, 1.7248740196228027], "name" : "POSITION"}, {"bufferView" : 3, "byteOffset" : 12, "componentType" : 5126, "count" : 64, "type" : "VEC2", "max" : [0.875, 1], "min" : [0.125, 0], "name" : "TEXCOORD_0"}, {"bufferView" : 3, "byteOffset" : 20, "componentType" : 5126, "count" : 64, "type" : "VEC3", "max" : [1.0000044107437134, 1.0000044107437134, 1.0000044107437134], "min" : [-1.0000044107437134, -1.0000044107437134, -1.0000044107437134], "name" : "NORMAL"}, {"bufferView" : 0, "byteOffset" : 15576, "componentType" : 5123, "count" : 132, "type" : "SCALAR", "max" : [63], "min" : [0]}, {"bufferView" : 4, "byteOffset" : 0, "componentType" : 5126, "count" : 64, "type" : "VEC3", "max" : [0.940966010093689, -0.5093569755554199, -0.6112750172615051], "min" : [-0.9351440072059631, -2.7633609771728516, -0.7838299870491028], "name" : "POSITION"}, {"bufferView" : 4, "byteOffset" : 12, "componentType" : 5126, "count" : 64, "type" : "VEC2", "max" : [0.875, 1], "min" : [0.125, 0], "name" : "TEXCOORD_0"}, {"bufferView" : 4, "byteOffset" : 20, "componentType" : 5126, "count" : 64, "type" : "VEC3", "max" : [1.0000044107437134, 1.0000044107437134, 1.0000044107437134], "min" : [-1.0000044107437134, -1.0000044107437134, -1.0000044107437134], "name" : "NORMAL"}, {"bufferView" : 0, "byteOffset" : 15840, "componentType" : 5123, "count" : 228, "type" : "SCALAR", "max" : [103], "min" : [0]}, {"bufferView" : 5, "byteOffset" : 0, "componentType" : 5126, "count" : 104, "type" : "VEC3", "max" : [0.940966010093689, -0.5097709894180298, 1.7273149490356445], "min" : [-0.9351440072059631, -0.682325005531311, -0.6212279796600342], "name" : "POSITION"}, {"bufferView" : 5, "byteOffset" : 12, "componentType" : 5126, "count" : 104, "type" : "VEC2", "max" : [0.875, 1], "min" : [0.125, 0], "name" : "TEXCOORD_0"}, {"bufferView" : 5, "byteOffset" : 20, "componentType" : 5126, "count" : 104, "type" : "VEC3", "max" : [1.0000044107437134, 1.0000044107437134, 1.0000044107437134], "min" : [-1.0000044107437134, -1.0000044107437134, -1.0000044107437134], "name" : "NORMAL"}, {"bufferView" : 0, "byteOffset" : 16296, "componentType" : 5123, "count" : 228, "type" : "SCALAR", "max" : [103], "min" : [0]}, {"bufferView" : 6, "byteOffset" : 0, "componentType" : 5126, "count" : 104, "type" : "VEC3", "max" : [0.940966010093689, -1.9475380182266235, 1.7273149490356445], "min" : [-0.9351440072059631, -2.1200919151306152, -0.6212279796600342], "name" : "POSITION"}, {"bufferView" : 6, "byteOffset" : 12, "componentType" : 5126, "count" : 104, "type" : "VEC2", "max" : [0.875, 1], "min" : [0.125, 0], "name" : "TEXCOORD_0"}, {"bufferView" : 6, "byteOffset" : 20, "componentType" : 5126, "count" : 104, "type" : "VEC3", "max" : [1.0000044107437134, 1.0000044107437134, 1.0000044107437134], "min" : [-1.0000044107437134, -1.0000044107437134, -1.0000044107437134], "name" : "NORMAL"}], "asset" : {"generator" : "Aspose.3D 25.3.0", "version" : "2.0"}, "buffers" : [{"uri" : "data:application/octet-stream;base64,", "byteLength" : 190860}], "bufferViews" : [{"buffer" : 0, "byteOffset" : 0, "byteLength" : 16752, "target" : 34963}, {"buffer" : 0, "byteOffset" : 16756, "byteLength" : 81664, "byteStride" : 32, "target" : 34962}, {"buffer" : 0, "byteOffset" : 98424, "byteLength" : 81664, "byteStride" : 32, "target" : 34962}, {"buffer" : 0, "byteOffset" : 180092, "byteLength" : 2048, "byteStride" : 32, "target" : 34962}, {"buffer" : 0, "byteOffset" : 182144, "byteLength" : 2048, "byteStride" : 32, "target" : 34962}, {"buffer" : 0, "byteOffset" : 184196, "byteLength" : 3328, "byteStride" : 32, "target" : 34962}, {"buffer" : 0, "byteOffset" : 187528, "byteLength" : 3328, "byteStride" : 32, "target" : 34962}], "materials" : [{"name" : "Material.001", "pbrMetallicRoughness" : {"baseColorFactor" : [0.046664, 0.212231, 0.799103, 1], "metallicFactor" : 1, "roughnessFactor" : 1}, "emissiveFactor" : [0, 0, 0], "alphaMode" : "OPAQUE", "doubleSided" : false}, {"name" : "Material.003", "pbrMetallicRoughness" : {"baseColorFactor" : [0.046664, 0.212231, 0.799103, 1], "metallicFactor" : 1, "roughnessFactor" : 1}, "emissiveFactor" : [0, 0, 0], "alphaMode" : "OPAQUE", "doubleSided" : false}, {"name" : "Material.002", "pbrMetallicRoughness" : {"baseColorFactor" : [0.046664, 0.212231, 0.799103, 1], "metallicFactor" : 1, "roughnessFactor" : 1}, "emissiveFactor" : [0, 0, 0], "alphaMode" : "OPAQUE", "doubleSided" : false}, {"name" : "Material.004", "pbrMetallicRoughness" : {"baseColorFactor" : [0.046664, 0.212231, 0.799103, 1], "metallicFactor" : 1, "roughnessFactor" : 1}, "emissiveFactor" : [0, 0, 0], "alphaMode" : "OPAQUE", "doubleSided" : false}], "meshes" : [{"primitives" : [{"attributes" : {"POSITION" : 1, "TEXCOORD_0" : 2, "NORMAL" : 3}, "indices" : 0, "mode" : 4}], "name" : ""}, {"primitives" : [{"attributes" : {"POSITION" : 5, "TEXCOORD_0" : 6, "NORMAL" : 7}, "indices" : 4, "mode" : 4}], "name" : ""}, {"primitives" : [{"attributes" : {"POSITION" : 9, "TEXCOORD_0" : 10, "NORMAL" : 11}, "indices" : 8, "material" : 0, "mode" : 4}], "name" : ""}, {"primitives" : [{"attributes" : {"POSITION" : 13, "TEXCOORD_0" : 14, "NORMAL" : 15}, "indices" : 12, "material" : 1, "mode" : 4}], "name" : ""}, {"primitives" : [{"attributes" : {"POSITION" : 17, "TEXCOORD_0" : 18, "NORMAL" : 19}, "indices" : 16, "material" : 2, "mode" : 4}], "name" : ""}, {"primitives" : [{"attributes" : {"POSITION" : 21, "TEXCOORD_0" : 22, "NORMAL" : 23}, "indices" : 20, "material" : 3, "mode" : 4}], "name" : ""}], "nodes" : [{"mesh" : 0, "name" : "Cube"}, {"mesh" : 1, "name" : "Cube.001"}, {"mesh" : 2, "name" : "Cube.002"}, {"mesh" : 3, "name" : "Cube.003"}, {"mesh" : 4, "name" : "Cube.004"}, {"mesh" : 5, "name" : "Cube.005"}], "scene" : 0, "scenes" : [{"nodes" : [0, 1, 2, 3, 4, 5]}]}